<svg width="30" height="19" viewBox="0 0 30 19" fill="none" xmlns="http://www.w3.org/2000/svg">
<path d="M9.75 18.3599C14.7206 18.3599 18.75 14.3304 18.75 9.35986C18.75 4.3893 14.7206 0.359863 9.75 0.359863C4.77944 0.359863 0.75 4.3893 0.75 9.35986C0.75 14.3304 4.77944 18.3599 9.75 18.3599Z" fill="#2285DD"/>
<path fill-rule="evenodd" clip-rule="evenodd" d="M15.3752 16.3799C15.4799 16.2955 15.5744 16.1987 15.6756 16.1099H15.0737C15.1761 16.1987 15.2706 16.2955 15.3752 16.3799Z" fill="#376BD1"/>
<path fill-rule="evenodd" clip-rule="evenodd" d="M21 0.359863C18.1594 0.359863 15.6304 1.67949 13.98 3.73486H16.77C17.0524 4.08699 17.2987 4.46724 17.5271 4.85986H13.2218H13.2127C13.0035 5.22099 12.8168 5.59449 12.6593 5.98486H12.6694H18.0795C18.228 6.34936 18.3562 6.72286 18.4564 7.10986H12.2948C12.2003 7.47661 12.1249 7.85124 12.0776 8.23486H18.6757C18.7219 8.60386 18.75 8.97849 18.75 9.35986H12C12 9.74124 12.0315 10.1159 12.0776 10.4849H18.6757C18.6274 10.8685 18.5509 11.2431 18.4564 11.6099H12.2948C12.3938 11.9946 12.513 12.3715 12.6604 12.7349H12.6705H18.0806C17.922 13.1241 17.7375 13.4999 17.5282 13.8599H13.2229H13.2139C13.4423 14.2547 13.6965 14.6316 13.98 14.9849H16.77C16.4415 15.3932 16.0691 15.7645 15.6754 16.1099H15.0735H15.06C16.6451 17.506 18.7207 18.3599 20.9989 18.3599C25.9691 18.3599 29.9989 14.3301 29.9989 9.35986C29.9989 4.38961 25.9702 0.359863 21 0.359863Z" fill="#F01524"/>
</svg>
