<svg width="59" height="19" viewBox="0 0 59 19" fill="none" xmlns="http://www.w3.org/2000/svg">
<path fill-rule="evenodd" clip-rule="evenodd" d="M21.335 17.9986H26.0304L28.9693 0.764648H24.2721L21.335 17.9986Z" fill="#282735"/>
<path fill-rule="evenodd" clip-rule="evenodd" d="M38.4412 7.68429C36.7999 6.88702 35.7938 6.3543 35.8046 5.54804C35.8046 4.83175 36.6559 4.06508 38.4952 4.06508C39.9998 4.04168 41.2128 4.34763 42.433 4.92354L43.0701 1.18735C42.1396 0.838206 40.6819 0.463867 38.8605 0.463867C34.2191 0.463867 30.949 2.80169 30.922 6.15094C30.8951 8.62733 33.2563 10.0095 35.038 10.8338C36.8665 11.6778 37.482 12.2177 37.473 12.9718C37.4622 14.1272 36.0134 14.6545 34.6618 14.6545C32.5778 14.6545 31.5267 14.3324 29.6353 13.4757L28.9766 17.3343C30.0744 17.8148 32.1027 18.2324 34.2101 18.254C39.1485 18.254 42.3538 15.9431 42.3898 12.3653C42.4024 10.4054 41.1516 8.91349 38.4412 7.68429Z" fill="#282735"/>
<path fill-rule="evenodd" clip-rule="evenodd" d="M55.1137 0.780762H51.4837C50.3589 0.780762 49.5184 1.08851 49.0235 2.20973L42.0479 18.0039H46.9808C46.9808 18.0039 47.7871 15.8803 47.9707 15.4142C48.5106 15.4142 53.3014 15.4214 53.9871 15.4214C54.1275 16.0243 54.5594 18.0039 54.5594 18.0039H58.9183L55.1137 0.780762ZM49.3223 11.8903C49.5166 11.3936 51.4333 6.47143 51.8167 5.4276C52.452 8.39892 51.8329 5.51579 53.2222 11.8903H49.3223Z" fill="#282735"/>
<path fill-rule="evenodd" clip-rule="evenodd" d="M17.3955 0.776912L12.7955 12.529L12.306 10.1408L10.6592 2.22028C10.3749 1.12965 9.55063 0.803907 8.5302 0.766113H0.953433L0.894043 1.12425C2.73694 1.57058 4.38367 2.21488 5.82884 3.01395L10.006 17.9821L14.9767 17.9767L22.3717 0.775112H17.3955V0.776912Z" fill="#282735"/>
</svg>
