<svg width="30" height="19" viewBox="0 0 30 19" fill="none" xmlns="http://www.w3.org/2000/svg">
<path d="M9.5 18.3599C14.4706 18.3599 18.5 14.3304 18.5 9.35986C18.5 4.3893 14.4706 0.359863 9.5 0.359863C4.52944 0.359863 0.5 4.3893 0.5 9.35986C0.5 14.3304 4.52944 18.3599 9.5 18.3599Z" fill="#F01524"/>
<path fill-rule="evenodd" clip-rule="evenodd" d="M15.1252 16.3799C15.2299 16.2955 15.3244 16.1987 15.4256 16.1099H14.8237C14.9261 16.1987 15.0206 16.2955 15.1252 16.3799Z" fill="#376BD1"/>
<path fill-rule="evenodd" clip-rule="evenodd" d="M20.75 0.359863C17.9094 0.359863 15.3804 1.67949 13.73 3.73486H16.52C16.8024 4.08699 17.0487 4.46724 17.2771 4.85986H12.9718H12.9627C12.7535 5.22099 12.5668 5.59449 12.4093 5.98486H12.4194H17.8295C17.978 6.34936 18.1062 6.72286 18.2064 7.10986H12.0448C11.9503 7.47661 11.8749 7.85124 11.8276 8.23486H18.4257C18.4719 8.60386 18.5 8.97849 18.5 9.35986H11.75C11.75 9.74124 11.7815 10.1159 11.8276 10.4849H18.4257C18.3774 10.8685 18.3009 11.2431 18.2064 11.6099H12.0448C12.1438 11.9946 12.263 12.3715 12.4104 12.7349H12.4205H17.8306C17.672 13.1241 17.4875 13.4999 17.2782 13.8599H12.9729H12.9639C13.1923 14.2547 13.4465 14.6316 13.73 14.9849H16.52C16.1915 15.3932 15.8191 15.7645 15.4254 16.1099H14.8235H14.81C16.3951 17.506 18.4707 18.3599 20.7489 18.3599C25.7191 18.3599 29.7489 14.3301 29.7489 9.35986C29.7489 4.38961 25.7202 0.359863 20.75 0.359863Z" fill="#FEB415"/>
<path d="M9.5 18.3599C14.4706 18.3599 18.5 14.3304 18.5 9.35986C18.5 4.3893 14.4706 0.359863 9.5 0.359863C4.52944 0.359863 0.5 4.3893 0.5 9.35986C0.5 14.3304 4.52944 18.3599 9.5 18.3599Z" fill="#F01524"/>
<path fill-rule="evenodd" clip-rule="evenodd" d="M20.75 0.359863C17.9094 0.359863 15.3804 1.67949 13.73 3.73486H16.52C16.8024 4.08699 17.0487 4.46724 17.2771 4.85986H12.9718H12.9627C12.7535 5.22099 12.5668 5.59449 12.4093 5.98486H12.4194H17.8295C17.978 6.34936 18.1062 6.72286 18.2064 7.10986H12.0448C11.9503 7.47661 11.8749 7.85124 11.8276 8.23486H18.4257C18.4719 8.60386 18.5 8.97849 18.5 9.35986H11.75C11.75 9.74124 11.7815 10.1159 11.8276 10.4849H18.4257C18.3774 10.8685 18.3009 11.2431 18.2064 11.6099H12.0448C12.1438 11.9946 12.263 12.3715 12.4104 12.7349H12.4205H17.8306C17.672 13.1241 17.4875 13.4999 17.2782 13.8599H12.9729H12.9639C13.1923 14.2547 13.4465 14.6316 13.73 14.9849H16.52C16.1915 15.3932 15.8191 15.7645 15.4254 16.1099H14.8235H14.81C16.3951 17.506 18.4707 18.3599 20.7489 18.3599C25.7191 18.3599 29.7489 14.3301 29.7489 9.35986C29.7489 4.38961 25.7202 0.359863 20.75 0.359863Z" fill="#FEB415"/>
</svg>
